<?xml version="1.0" encoding="utf-8"?>
<!-- Generator: Adobe Illustrator 23.0.1, SVG Export Plug-In . SVG Version: 6.00 Build 0)  -->
<svg version="1.1" id="Layer_1" xmlns="http://www.w3.org/2000/svg" xmlns:xlink="http://www.w3.org/1999/xlink" x="0px" y="0px"
	 viewBox="0 0 300 300" style="enable-background:new 0 0 300 300;" xml:space="preserve">
<style type="text/css">
	.st0{fill:#FFFFFF;}
	.st1{fill:#F67280;}
</style>
<g>
	<circle class="st0" cx="150" cy="150" r="150"/>
	<g>
		<path class="st1" d="M61.4,70.2c0-8.3,4.2-12.5,12.7-12.5h15c8.3,0,12.5,4.2,12.5,12.5v25c0,1.7,0,3.1-0.1,4.3
			c-0.1,1.2-0.1,2.4-0.1,3.3c-0.1,1.2-0.2,2.1-0.2,2.9h0.4c1.7-2.2,3.6-4.2,6-6c2.1-1.4,4.7-2.7,7.9-4c3.2-1.3,7-1.9,11.5-1.9
			c6.5,0,12.5,1.3,18,3.9c5.4,2.6,10.1,6.1,14,10.7s7,9.9,9.2,16.2c2.2,6.3,3.4,13.2,3.4,20.7c0,8.1-1.2,15.4-3.6,21.9
			s-5.7,12.1-9.9,16.6c-4.2,4.5-9,8.1-14.6,10.6c-5.6,2.5-11.6,3.7-18,3.7c-2.3,0-4.8-0.2-7.4-0.6c-2.6-0.4-5.1-1.1-7.6-2.1
			s-4.7-2.4-6.8-4.2c-2.1-1.8-3.8-4-5.1-6.7h-0.4c-0.3,3.3-1.5,6-3.6,8.2c-2.1,2.1-5.1,3.2-8.9,3.2H74.1c-8.4,0-12.7-4.2-12.7-12.5
			C61.4,183.5,61.4,70.2,61.4,70.2z M100.4,145.6c0,5.7,1.3,10.3,3.9,14.1c2.6,3.8,6.3,5.7,11.1,5.7c4.5,0,8.3-1.6,11.4-4.7
			c3.1-3.1,4.6-7.8,4.6-13.9c0-5.7-1.5-10.5-4.3-14c-2.9-3.6-6.6-5.4-11.1-5.4c-4.1,0-7.7,1.6-10.8,4.7
			C101.9,135.2,100.4,139.7,100.4,145.6z"/>
		<path class="st1" d="M181.1,171.7c0-8.3,4.2-12.5,12.5-12.5h11.7c8.4,0,12.7,4.2,12.7,12.5v11.7c0,8.3-4.2,12.5-12.7,12.5h-11.7
			c-8.3,0-12.5-4.2-12.5-12.5V171.7z"/>
	</g>
</g>
</svg>
