<?xml version="1.0" encoding="utf-8"?>
<!-- Generator: Adobe Illustrator 23.0.2, SVG Export Plug-In . SVG Version: 6.00 Build 0)  -->
<svg version="1.1" id="Layer_1" xmlns="http://www.w3.org/2000/svg" xmlns:xlink="http://www.w3.org/1999/xlink" x="0px" y="0px"
	 viewBox="0 0 512 512" style="enable-background:new 0 0 512 512;" xml:space="preserve">
<style type="text/css">
	.st0{fill:#F67280;}
</style>
<path class="st0" d="M416.3,512c-106.7,0-213.3,0-320,0c-9.1-3.9-12.3-10.8-12.1-20.6c0.4-28.6,0.1-57.3,0.1-85.9c0-1.8,0-3.5,0-5.5
	c-12.7,0-24.7,0.1-36.7,0C26.5,399.7,8,385.5,2.2,365.1c-0.6-2-1.2-4.1-1.9-6.1c0-63.3,0-126.7,0-190c2.1-5.5,3.5-11.5,6.4-16.6
	c9.1-15.8,23.1-24,41.4-24.4c11.9-0.3,23.9,0,36.2,0c0-2,0-3.5,0-5c0-34.1,0.2-68.3-0.1-102.4c-0.1-9.8,3-16.7,12.1-20.6
	c106.7,0,213.3,0,320,0c9.1,3.9,12.3,10.8,12.1,20.6c-0.4,34-0.1,68-0.1,101.9c0,1.8,0,3.5,0,5.5c12.7,0,24.7-0.1,36.7,0
	c21.1,0.2,39.6,14.5,45.4,34.9c0.6,2,1.2,4.1,1.9,6.1c0,63.3,0,126.7,0,190c-0.4,1.1-0.8,2.1-1.1,3.2c-3.1,12.9-10.1,23-21.2,30.3
	c-7.7,5-16.3,7.5-25.5,7.5c-11.9,0-23.9,0-36.2,0c0,2.5,0,4.5,0,6.5c0,28.3-0.2,56.6,0.2,84.9C428.6,501.2,425.5,508.1,416.3,512z
	 M84.3,368c0-2.8,0-5.1,0-7.4c0-28.7,0-57.3,0-86c0-12.7,6-18.6,18.7-18.6c102.5,0,205,0,307.5,0c11.5,0,17.8,6.4,17.8,18
	c0,29.5,0,59,0,88.5c0,1.8,0,3.5,0,5.5c12.2,0,23.7,0.1,35.2,0c10.1-0.1,16.8-6.8,16.8-17.1c0-58,0-116,0-174
	c0-10.2-6.7-16.9-17-16.9c-137.8,0-275.6,0-413.5,0c-11.2,0-17.5,6.5-17.6,17.8c0,10.7,0,21.3,0,32c0,47,0,94,0,141
	c0,9.9,6.4,17,15.7,17.1C59.8,368.1,71.7,368,84.3,368z M396.1,288.4c-93.5,0-186.5,0-279.4,0c0,64.1,0,127.8,0,191.4
	c93.3,0,186.2,0,279.4,0C396.1,415.9,396.1,352.3,396.1,288.4z M396.1,32.4c-93.5,0-186.5,0-279.4,0c0,32.1,0,63.8,0,95.4
	c93.3,0,186.2,0,279.4,0C396.1,95.9,396.1,64.3,396.1,32.4z"/>
<path class="st0" d="M416.3,208c0-8.7,7.1-15.9,15.7-16c9-0.1,16.2,7,16.3,16c0,8.7-7.1,15.9-15.7,16
	C423.6,224.1,416.4,217,416.3,208z"/>
<path class="st0" d="M256.3,352.2c-30.5,0-61,0.1-91.5,0c-11.5,0-18.7-10.1-15.4-20.9c2.2-7,8.1-11.1,16.5-11.1
	c24.2,0,48.3,0,72.5,0c36.3,0,72.7,0,109,0c10.9,0,17.8,7.3,17,17.6c-0.7,8.8-7.2,14.4-17.2,14.4C317,352.3,286.7,352.3,256.3,352.2
	C256.3,352.3,256.3,352.3,256.3,352.2z"/>
<path class="st0" d="M256.8,416.2c-30.2,0-60.3-0.2-90.5,0.1c-10.5,0.1-17.3-6.9-17.6-15.7c-0.3-9.6,6.9-16.4,17.4-16.4
	c60.5,0,121,0,181.5,0c7,0,12.4,2.6,15.4,9c2.8,6,2.2,12-2,17.4c-3.3,4.2-7.9,5.7-13.2,5.7C317.4,416.2,287.1,416.2,256.8,416.2z"/>
</svg>
